<?xml version="1.0" standalone="no"?>
<!DOCTYPE svg PUBLIC "-//W3C//DTD SVG 20010904//EN"
 "http://www.w3.org/TR/2001/REC-SVG-20010904/DTD/svg10.dtd">
<svg version="1.0" xmlns="http://www.w3.org/2000/svg"
 width="1280.000000pt" height="1280.000000pt" viewBox="0 0 1280.000000 1280.000000"
 preserveAspectRatio="xMidYMid meet">

<g transform="translate(0.000000,1280.000000) scale(0.100000,-0.100000)"
fill="#000000" stroke="none">
<path d="M2410 12408 c0 -98 8 -360 30 -993 6 -159 15 -429 20 -600 12 -387
18 -528 32 -780 7 -110 12 -288 12 -395 1 -118 5 -198 11 -202 6 -4 13 -76 16
-160 6 -143 7 -140 3 37 -2 105 -10 368 -18 585 -8 217 -17 523 -21 680 -3
157 -10 384 -15 505 -5 121 -14 405 -21 630 -20 724 -23 788 -36 793 -10 3
-13 -21 -13 -100z"/>
<path d="M5020 12453 c0 -74 17 -431 26 -544 5 -69 3 -89 -8 -100 -14 -12 -13
-15 1 -26 14 -10 12 -13 -14 -23 -16 -6 -54 -18 -82 -25 -29 -8 -68 -25 -85
-38 -18 -13 -62 -29 -96 -36 -35 -7 -106 -32 -158 -57 -52 -24 -118 -54 -147
-65 -111 -44 -213 -105 -272 -162 -33 -32 -71 -65 -85 -72 -14 -7 -43 -34 -65
-60 -22 -25 -67 -76 -99 -113 -33 -37 -70 -92 -83 -122 -13 -30 -30 -66 -38
-80 -50 -88 -64 -121 -75 -173 -8 -42 -22 -70 -45 -95 -18 -21 -45 -62 -60
-92 l-27 -54 32 -64 c37 -73 47 -127 31 -173 -10 -29 -9 -35 11 -56 12 -13 29
-23 38 -23 21 0 40 -19 40 -40 0 -9 9 -25 20 -35 11 -10 20 -26 20 -36 0 -10
12 -49 26 -86 14 -37 37 -99 50 -138 14 -38 32 -81 42 -95 20 -29 44 -86 63
-150 7 -25 37 -89 66 -143 29 -54 53 -102 53 -108 0 -5 14 -51 32 -101 30 -87
34 -92 91 -134 32 -24 65 -44 73 -44 15 0 15 -1 19 84 2 50 6 63 28 80 14 12
27 30 29 41 4 17 7 15 20 -12 13 -31 15 -32 36 -17 36 25 51 73 35 106 -11 21
-11 32 -3 48 11 20 13 21 30 5 13 -12 20 -13 25 -5 4 7 3 15 -2 19 -11 7 -10
84 2 126 9 34 21 48 49 58 16 6 18 14 13 52 -5 33 -1 57 13 91 24 54 26 100 5
108 -12 4 -13 10 -3 31 8 18 19 25 39 25 23 0 30 5 35 28 3 15 9 36 12 47 4
11 7 25 8 30 0 6 4 23 9 38 5 18 3 33 -4 40 -28 28 5 100 79 176 25 25 52 58
59 73 8 15 22 30 33 34 10 3 18 12 18 20 0 8 6 14 13 14 6 1 75 6 152 11 160
12 159 12 240 8 51 -3 70 1 115 25 30 16 62 34 70 41 19 17 165 85 182 85 7 0
49 27 93 60 44 33 85 60 92 60 7 0 16 7 21 16 9 17 54 37 127 56 22 6 47 16
55 23 28 22 74 34 150 40 84 6 110 12 110 26 0 5 14 9 32 9 18 0 41 9 53 20
35 33 153 44 270 25 68 -11 102 -21 114 -34 21 -24 67 -39 147 -47 48 -5 67
-12 75 -25 5 -11 17 -19 26 -19 25 0 126 -110 151 -165 12 -28 31 -66 41 -85
27 -52 67 -158 81 -215 6 -27 16 -130 21 -228 5 -98 13 -217 19 -265 5 -48 10
-128 10 -178 0 -179 57 -494 89 -494 16 0 22 43 21 145 -1 86 33 416 45 435 2
4 11 42 20 86 19 89 38 118 72 109 26 -6 27 -5 12 28 -8 18 -6 42 6 98 9 41
16 84 16 97 -1 39 33 24 37 -16 2 -17 7 -32 11 -32 14 0 22 60 11 80 -6 10
-10 31 -10 45 0 14 -4 34 -9 44 -7 12 -6 26 3 42 24 48 26 86 6 145 -26 74
-25 77 10 69 17 -4 30 -3 30 2 0 28 -23 79 -54 116 -20 24 -36 46 -36 49 0 3
10 8 23 12 21 6 21 7 -13 33 -83 65 -108 105 -84 138 12 17 19 17 86 6 117
-19 188 -60 307 -175 57 -56 128 -134 158 -174 30 -41 57 -71 61 -68 3 4 -4
19 -16 34 -12 15 -32 45 -43 67 -31 58 -196 223 -251 251 -26 13 -49 28 -53
34 -7 12 -65 38 -110 50 -111 30 -178 71 -155 94 8 8 14 6 21 -4 9 -13 10 -12
5 3 -3 10 9 39 33 75 39 57 62 132 41 132 -6 0 -13 -7 -16 -15 -4 -8 -10 -15
-15 -15 -14 0 -10 36 6 50 7 6 17 31 21 55 8 55 -11 100 -47 116 -15 6 -38 22
-51 36 -29 31 -70 53 -100 53 -16 0 -33 14 -55 48 -18 26 -33 51 -33 55 0 4
-16 30 -35 57 -19 27 -35 52 -35 54 0 21 -120 138 -195 191 -79 55 -132 75
-232 85 -63 7 -87 14 -103 30 -16 16 -31 20 -63 18 l-42 -3 -7 45 c-3 25 -7
95 -7 156 -1 61 -4 145 -7 187 l-7 77 -81 0 -81 0 6 -137 c4 -76 7 -153 8
-171 1 -21 10 -41 26 -56 14 -13 25 -28 25 -35 0 -17 -24 -13 -46 7 -26 23
-130 72 -153 72 -10 0 -23 6 -29 13 -6 7 -14 79 -18 160 l-7 147 -29 0 -30 0
7 -79 c6 -66 4 -79 -9 -84 -18 -7 -21 -45 -7 -93 l9 -30 -96 -12 c-53 -7 -109
-19 -125 -27 -17 -8 -34 -15 -39 -15 -5 0 -16 -7 -24 -15 -9 -8 -28 -15 -43
-15 -15 0 -32 -5 -38 -11 -16 -16 -98 8 -100 29 -1 9 -5 92 -9 185 l-7 167
-348 0 -349 0 0 -57z m630 -298 c0 -2 -9 -9 -20 -15 -24 -13 -50 -2 -29 11 15
9 49 12 49 4z m37 -1 c-3 -3 -12 -4 -19 -1 -8 3 -5 6 6 6 11 1 17 -2 13 -5z
m-377 -84 c0 -10 -69 -78 -137 -135 -70 -58 -20 29 54 94 56 49 83 62 83 41z
m1386 -98 c-4 -3 -14 2 -24 12 -16 18 -16 18 6 6 13 -6 21 -14 18 -18z m149
-39 c37 -18 44 -30 21 -39 -15 -6 -90 29 -101 46 -10 16 41 12 80 -7z m-1345
-103 c11 -20 -3 -30 -15 -10 -3 6 -15 10 -26 10 -10 0 -19 5 -19 10 0 19 49
10 60 -10z m-276 -70 c45 -17 29 -30 -36 -30 -70 0 -104 13 -78 30 19 13 81
13 114 0z m-163 -31 c15 0 34 -8 44 -19 18 -20 18 -21 -1 -35 -25 -19 -74 -33
-149 -41 -78 -9 -63 14 16 26 30 4 45 8 33 9 -17 1 -44 35 -44 56 0 7 45 12
60 7 8 -2 27 -4 41 -3z m-226 -118 c-3 -6 -14 -11 -23 -11 -13 0 -13 2 4 14
21 15 30 14 19 -3z m-600 -280 c9 -15 -27 -30 -58 -24 -27 5 -33 13 -20 26 10
10 71 8 78 -2z"/>
<path d="M4995 11710 c-3 -5 1 -10 10 -10 9 0 13 5 10 10 -3 6 -8 10 -10 10
-2 0 -7 -4 -10 -10z"/>
<path d="M11945 12408 c1 -57 6 -141 9 -188 4 -47 11 -330 16 -630 5 -300 16
-788 25 -1085 41 -1480 43 -1559 26 -1578 -8 -11 -5 -17 13 -27 14 -7 30 -9
37 -4 18 11 40 12 402 20 174 3 317 10 317 15 0 6 -600 4 -660 -2 -49 -6 -57
0 -64 49 -3 26 -8 157 -11 292 -7 341 -14 626 -26 1040 -5 195 -14 546 -19
780 -31 1325 -34 1420 -54 1420 -10 0 -12 -26 -11 -102z"/>
<path d="M8279 10285 c17 -34 31 -51 31 -39 0 7 -9 22 -21 35 -16 19 -18 20
-10 4z"/>
<path d="M6632 9780 c-29 -17 -57 -28 -62 -25 -8 5 -22 -24 -19 -41 8 -46 -2
-60 -53 -79 -29 -11 -57 -20 -63 -21 -46 -6 -55 -17 -55 -62 0 -25 -5 -60 -12
-78 -9 -26 -8 -38 6 -68 10 -21 22 -33 30 -30 7 3 18 -2 25 -10 7 -8 19 -12
27 -9 11 4 14 -4 14 -35 0 -37 2 -40 26 -37 14 1 40 17 58 34 21 20 53 37 87
46 49 13 55 13 67 -2 6 -9 12 -24 12 -34 0 -28 25 -40 102 -48 86 -9 92 -8
107 25 14 31 47 29 43 -3 -3 -24 32 -37 73 -27 15 4 25 2 25 -5 0 -12 82 -16
93 -5 11 11 -54 73 -126 121 -37 25 -66 47 -64 50 12 11 86 -20 112 -48 17
-17 43 -40 59 -51 l28 -21 -7 24 c-15 53 -153 139 -222 139 -55 0 -236 39
-245 52 -11 18 -10 23 10 40 49 42 81 48 260 49 96 1 177 -2 181 -7 7 -10 34
-28 69 -46 47 -24 55 30 11 86 -11 14 -40 36 -62 47 -23 12 -59 37 -79 56 -27
27 -47 36 -75 38 -21 1 -103 5 -183 9 l-145 7 -53 -31z"/>
<path d="M5515 9750 c-16 -5 -52 -16 -79 -26 -40 -14 -54 -15 -82 -5 -27 10
-42 9 -81 -4 -54 -19 -113 -52 -113 -65 0 -5 10 -16 22 -24 29 -20 12 -40 -48
-55 -83 -21 -113 -54 -80 -87 19 -18 40 -18 56 1 7 8 22 15 33 15 11 0 29 7
39 17 25 22 88 33 248 43 107 6 141 5 164 -6 16 -8 38 -14 49 -14 21 0 87 -39
87 -52 0 -7 -30 -14 -105 -24 -27 -3 -83 -15 -124 -25 -41 -10 -83 -19 -92
-19 -22 0 -157 -54 -206 -82 -76 -44 -163 -116 -163 -135 0 -20 81 -16 131 6
53 23 149 36 149 21 0 -13 30 -13 50 0 13 9 12 13 -7 29 -20 17 -21 20 -8 31
13 11 14 10 9 -6 -4 -10 -3 -16 1 -11 5 4 15 1 24 -7 19 -17 69 -21 136 -12
81 11 96 16 89 27 -9 15 4 56 20 62 8 3 25 -2 37 -12 l22 -18 -21 -21 -22 -22
28 0 c15 0 33 5 39 11 7 7 27 7 64 0 64 -11 77 -3 50 30 l-20 25 30 -4 c21 -3
29 0 29 11 0 9 13 17 35 21 43 8 47 14 47 84 0 41 7 69 24 101 29 53 31 76 7
66 -48 -20 -61 -17 -104 27 -24 24 -69 58 -100 75 -47 26 -70 32 -145 37 -49
3 -102 1 -119 -4z m321 -317 c-6 -6 -36 9 -36 18 0 5 9 4 20 -3 10 -7 18 -14
16 -15z"/>
<path d="M4490 9305 c0 -18 5 -25 20 -25 11 0 20 -4 20 -10 0 -5 5 -10 10 -10
12 0 13 40 2 55 -4 6 -17 11 -29 12 -18 2 -23 -2 -23 -22z"/>
<path d="M4470 9236 c-6 -8 -21 -16 -33 -18 -16 -2 -21 -9 -18 -23 1 -11 4
-36 6 -55 5 -58 12 -86 31 -121 40 -75 52 -128 58 -252 4 -74 9 -97 21 -85 6
5 7 241 1 383 -2 68 -7 99 -15 98 -6 -2 -11 6 -11 18 0 15 -4 19 -16 15 -14
-5 -16 -1 -11 24 7 34 5 37 -13 16z"/>
<path d="M7581 9216 c-49 -52 -63 -188 -21 -199 14 -4 18 -14 18 -52 -1 -47
12 -68 37 -59 15 6 45 -38 45 -66 0 -34 19 -22 31 20 10 31 10 59 1 118 -27
186 -51 262 -82 262 -4 0 -17 -11 -29 -24z"/>
<path d="M5678 9203 c-46 -5 -61 -21 -43 -46 10 -15 15 -15 26 -5 8 7 23 15
34 16 23 4 45 20 45 33 0 5 -6 8 -12 7 -7 -1 -30 -3 -50 -5z"/>
<path d="M6649 9196 c6 -8 22 -16 34 -19 12 -3 40 -12 62 -21 44 -17 151 -21
160 -7 10 17 -19 25 -98 28 -43 1 -84 6 -90 11 -7 5 -27 12 -46 16 -28 5 -31
4 -22 -8z"/>
<path d="M5500 9136 c-6 -8 -28 -16 -48 -18 -20 -2 -36 -7 -34 -13 4 -15 93
-7 112 10 9 8 24 15 33 15 9 0 19 5 22 10 10 16 -71 12 -85 -4z"/>
<path d="M3965 9120 c-28 -11 -37 -25 -68 -105 -29 -73 -47 -200 -37 -250 7
-34 48 -81 69 -80 7 0 17 10 22 23 6 17 4 27 -11 42 -30 30 -25 48 13 52 25 2
31 7 29 22 -2 10 2 23 10 28 10 8 10 11 1 15 -7 2 -13 9 -13 15 0 6 6 6 15 -2
8 -7 15 -23 15 -36 0 -13 4 -24 9 -24 9 0 27 62 35 124 6 46 31 87 57 93 30 8
22 31 -23 63 -41 30 -82 37 -123 20z"/>
<path d="M2532 9005 c0 -16 2 -22 5 -12 2 9 2 23 0 30 -3 6 -5 -1 -5 -18z"/>
<path d="M4206 8913 c8 -32 43 -83 57 -83 5 0 7 10 3 23 -3 12 -6 27 -6 33 0
5 -14 20 -30 33 l-31 22 7 -28z"/>
<path d="M11808 8923 c12 -2 30 -2 40 0 9 3 -1 5 -23 4 -22 0 -30 -2 -17 -4z"/>
<path d="M11900 8920 c0 -5 16 -10 35 -10 19 0 35 5 35 10 0 6 -16 10 -35 10
-19 0 -35 -4 -35 -10z"/>
<path d="M11213 8913 c9 -2 23 -2 30 0 6 3 -1 5 -18 5 -16 0 -22 -2 -12 -5z"/>
<path d="M11448 8910 c17 -4 47 -4 65 0 25 6 19 8 -33 8 -52 0 -58 -2 -32 -8z"/>
<path d="M11578 8913 c7 -3 16 -2 19 1 4 3 -2 6 -13 5 -11 0 -14 -3 -6 -6z"/>
<path d="M10628 8903 c101 -2 263 -2 360 0 97 1 15 2 -183 2 -198 0 -278 -1
-177 -2z"/>
<path d="M10348 8893 c6 -2 18 -2 25 0 6 3 1 5 -13 5 -14 0 -19 -2 -12 -5z"/>
<path d="M2540 8815 c7 -8 16 -15 21 -15 5 0 6 7 3 15 -4 8 -13 15 -21 15 -13
0 -13 -3 -3 -15z"/>
<path d="M3263 8803 c59 -2 155 -2 215 0 59 1 10 3 -108 3 -118 0 -167 -2
-107 -3z"/>
<path d="M2493 8793 c9 -2 23 -2 30 0 6 3 -1 5 -18 5 -16 0 -22 -2 -12 -5z"/>
<path d="M2643 8793 c9 -2 23 -2 30 0 6 3 -1 5 -18 5 -16 0 -22 -2 -12 -5z"/>
<path d="M125 8770 c-66 -4 83 -5 330 -2 248 2 452 6 454 8 7 6 -648 1 -784
-6z"/>
<path d="M12045 8745 c3 -22 11 -44 17 -50 6 -7 7 3 3 30 -4 22 -12 45 -17 50
-7 7 -8 -3 -3 -30z"/>
<path d="M4297 8722 c-15 -2 -32 -13 -38 -25 -7 -12 -18 -26 -25 -30 -8 -4
-14 -16 -14 -27 0 -10 -5 -20 -11 -22 -13 -4 -20 -68 -8 -68 4 0 11 -9 14 -20
9 -28 50 -26 87 5 16 14 42 25 58 25 20 0 29 6 34 23 9 34 7 67 -4 67 -6 0
-18 16 -27 35 -18 38 -26 42 -66 37z"/>
<path d="M6484 8614 c-57 -38 -94 -75 -94 -94 0 -14 7 -16 45 -10 50 8 59 4
69 -27 9 -30 31 -29 62 2 18 18 23 31 18 50 -4 15 -2 25 5 25 21 0 11 39 -15
59 -34 27 -43 26 -90 -5z"/>
<path d="M5928 8607 c-9 -7 -25 -18 -37 -26 -11 -8 -17 -19 -14 -24 3 -5 -4
-17 -17 -27 -21 -16 -21 -18 -6 -47 21 -41 58 -50 100 -23 23 13 50 20 86 20
48 0 56 -4 107 -50 43 -37 67 -51 100 -56 46 -7 69 3 117 51 35 35 34 55 -4
55 -27 0 -30 3 -24 25 5 20 2 25 -18 29 -12 3 -35 7 -49 10 -18 4 -35 -1 -52
-14 -33 -26 -39 -25 -75 8 -39 36 -133 82 -169 82 -15 0 -35 -6 -45 -13z"/>
<path d="M1113 8500 c0 -36 2 -50 4 -32 2 17 2 47 0 65 -2 17 -4 3 -4 -33z"/>
<path d="M4545 8476 c4 -49 16 -120 27 -159 32 -117 50 -235 38 -257 -5 -10
-10 -27 -10 -37 0 -49 -73 -123 -122 -123 -10 0 -18 -4 -18 -10 0 -15 77 -2
108 18 15 9 34 26 43 36 18 21 49 16 49 -8 0 -24 61 -268 75 -303 8 -18 25
-48 39 -66 15 -19 26 -38 26 -42 0 -20 82 -144 129 -195 28 -30 51 -58 51 -62
0 -3 36 -36 80 -73 44 -36 78 -70 75 -74 -2 -5 5 -12 18 -16 13 -4 17 -8 10
-11 -10 -4 -10 -11 -2 -25 5 -11 14 -17 19 -14 17 10 56 -6 56 -23 0 -70 15
-105 36 -84 9 9 9 12 -1 12 -11 0 -11 3 -1 15 12 14 15 14 30 0 10 -9 16 -26
15 -38 -1 -12 -3 -28 -4 -34 0 -7 -8 -13 -17 -13 -14 0 -14 -1 0 -16 9 -8 21
-24 26 -34 5 -10 24 -22 42 -25 18 -4 41 -16 51 -26 10 -11 25 -19 35 -19 9 0
31 -13 47 -29 17 -15 41 -33 53 -40 14 -7 22 -21 22 -36 0 -18 5 -25 19 -25
11 0 27 -3 37 -7 12 -5 15 -3 9 6 -6 10 -2 11 16 6 13 -4 28 -11 34 -16 5 -5
17 -9 26 -9 10 0 27 -16 39 -35 26 -42 78 -87 92 -79 5 3 12 -3 15 -15 4 -15
13 -21 35 -21 23 0 29 -4 26 -17 -2 -10 5 -26 15 -36 11 -11 17 -29 15 -45 -3
-26 -5 -27 -50 -24 -39 3 -48 1 -48 -12 0 -9 -6 -16 -14 -16 -20 0 -37 -50
-32 -92 4 -36 12 -50 49 -87 17 -17 17 -19 1 -25 -16 -6 -16 -8 1 -26 10 -11
15 -26 11 -35 -7 -18 40 -75 62 -75 9 0 13 -7 9 -20 -7 -26 57 -84 84 -77 12
3 23 -2 29 -14 13 -23 30 -25 30 -4 0 8 -7 15 -15 15 -8 0 -15 5 -15 10 0 13
16 13 43 -1 50 -27 43 -49 -15 -49 -35 0 -39 -2 -28 -15 20 -24 0 -38 -35 -25
-39 15 -44 4 -6 -17 17 -10 31 -22 31 -28 0 -16 -46 -65 -54 -58 -4 4 -11 1
-16 -7 -5 -8 -12 -11 -17 -6 -4 4 0 12 10 17 35 20 18 34 -41 34 -41 0 -63 -5
-75 -16 -9 -9 -32 -20 -51 -23 l-34 -7 15 -30 c11 -22 12 -33 4 -43 -15 -18
-15 -52 2 -110 14 -50 21 -56 92 -82 24 -8 146 -13 159 -6 5 3 37 4 71 3 47
-2 74 3 109 19 25 12 53 19 62 16 11 -4 28 6 50 29 21 22 42 35 58 35 14 0 26
5 26 11 0 5 -4 8 -9 5 -14 -9 -21 21 -8 32 7 6 23 12 37 14 33 4 40 37 10 45
l-23 6 24 17 c22 17 22 19 5 35 -19 19 -15 63 7 77 6 3 -5 11 -24 16 -31 8
-34 12 -31 41 2 30 0 31 -25 25 -16 -3 -34 -7 -40 -10 -7 -2 -13 2 -13 9 0 8
-14 13 -36 14 -40 1 -54 15 -53 53 0 14 3 19 6 12 3 -8 16 -3 43 18 21 16 49
30 63 30 31 0 45 18 26 32 -11 7 -9 9 7 5 25 -5 38 15 50 73 3 19 12 38 18 42
18 13 36 9 36 -7 0 -8 -9 -15 -20 -15 -11 0 -20 -3 -21 -7 0 -5 -2 -16 -4 -25
-4 -25 14 -33 22 -11 3 10 20 30 36 45 17 16 29 29 26 31 -2 2 -13 9 -24 15
-17 10 -18 11 -2 12 9 0 17 7 17 15 0 9 9 15 25 15 20 0 25 5 25 25 0 14 -4
25 -10 25 -5 0 -10 16 -10 35 0 28 7 40 40 66 45 37 47 41 23 69 -19 22 -39
26 -45 8 -5 -13 -28 -2 -28 13 0 5 11 15 25 21 14 6 25 17 25 25 0 26 32 62
60 68 16 4 29 10 29 13 -3 21 5 33 38 53 21 13 31 25 24 27 -7 2 4 14 25 26
35 19 39 26 42 64 3 33 7 42 22 42 11 0 25 13 34 31 14 27 14 33 1 46 -21 20
-19 25 15 53 16 14 29 31 30 38 0 16 86 102 100 102 6 0 10 5 10 12 0 7 12 24
26 38 38 37 84 101 84 116 0 13 35 38 53 39 15 0 69 59 87 95 9 19 25 62 35
95 9 33 24 71 32 84 8 13 23 56 33 95 10 39 27 98 39 130 11 33 24 82 27 109
7 47 6 49 -13 38 -12 -6 -23 -25 -26 -43 -13 -75 -20 -98 -26 -93 -4 2 -15
-14 -25 -35 -10 -22 -22 -40 -28 -40 -6 0 -16 -7 -23 -16 -17 -23 -85 -24
-107 -1 -26 25 -24 92 2 110 12 8 20 20 18 27 -2 7 3 15 10 17 6 3 12 -2 12
-11 0 -9 7 -16 15 -16 21 0 19 37 -6 76 -23 38 -28 39 -75 22 -30 -10 -34 -17
-39 -57 -12 -92 -15 -99 -42 -106 -31 -7 -40 1 -52 42 -7 24 -6 33 5 37 11 4
12 11 6 23 -16 31 -22 96 -10 110 8 10 7 18 -6 31 -9 10 -16 29 -16 41 0 12
-7 32 -15 44 -8 12 -13 41 -12 64 2 51 -23 88 -79 120 -32 18 -55 23 -121 23
-45 0 -85 -4 -88 -10 -9 -15 -21 -12 -52 14 -16 14 -42 28 -57 32 -17 4 -36
20 -48 41 -17 28 -62 63 -83 63 -3 0 -5 -9 -5 -21 0 -18 -4 -20 -45 -13 -38 5
-46 3 -52 -12 -4 -10 -2 -19 5 -22 6 -2 22 -12 34 -23 l23 -19 -29 2 c-17 2
-31 -2 -33 -10 -4 -10 5 -12 33 -10 35 3 40 0 54 -30 19 -40 58 -53 152 -48
58 3 70 0 86 -18 11 -12 33 -29 51 -38 100 -54 -39 -58 -265 -8 -89 20 -104
21 -129 9 -27 -13 -29 -17 -26 -67 2 -40 -1 -53 -14 -58 -25 -10 -27 -4 -34
78 -1 4 -20 17 -43 29 -64 33 -110 29 -207 -15 -85 -39 -198 -71 -281 -78 -25
-3 -37 -3 -27 -1 16 4 18 11 13 51 -12 99 -17 104 -69 79 -18 -8 -44 -20 -58
-27 -44 -20 -74 -69 -75 -120 -2 -134 -4 -150 -20 -150 -11 0 -14 -5 -10 -16
3 -9 6 -18 6 -20 0 -2 9 -4 20 -4 14 0 22 10 28 32 5 21 16 34 28 37 10 1 27
10 36 18 14 12 34 14 111 8 90 -7 95 -6 148 21 47 26 64 29 139 29 47 -1 138
-7 202 -15 108 -12 123 -12 180 5 77 22 275 32 306 16 17 -9 34 -7 81 10 68
23 86 20 126 -20 32 -32 70 -148 54 -167 -6 -7 -4 -39 5 -85 12 -63 12 -76 1
-85 -8 -6 -17 -29 -21 -53 -4 -23 -11 -44 -16 -47 -4 -3 -6 -27 -2 -53 6 -46
5 -49 -27 -71 -19 -13 -36 -25 -38 -26 -2 -2 -9 -29 -15 -60 -6 -32 -16 -59
-23 -61 -6 -2 -21 13 -34 34 l-23 38 -10 -63 c-13 -78 -34 -95 -77 -63 -27 20
-29 20 -46 3 -31 -32 -51 -34 -69 -7 -17 27 -34 25 -34 -4 0 -9 -6 -26 -14
-37 -13 -16 -18 -17 -36 -6 -17 10 -24 10 -44 -3 -13 -9 -27 -22 -30 -30 -4
-12 -11 -12 -48 1 -38 12 -50 13 -91 0 -63 -19 -101 -9 -105 27 -4 32 -7 33
-39 7 -35 -28 -63 -26 -63 3 0 34 -10 39 -38 21 -14 -9 -41 -17 -59 -18 -19 0
-38 -8 -43 -16 -6 -10 -26 -15 -62 -15 -46 0 -56 4 -77 28 -19 22 -26 25 -38
16 -11 -10 -25 -9 -64 6 -38 13 -53 15 -62 6 -6 -6 -19 -11 -29 -11 -14 0 -18
8 -18 38 0 37 -11 53 -56 78 -10 6 -26 25 -34 42 -8 17 -21 32 -27 32 -7 0
-13 4 -13 10 0 5 -21 3 -47 -5 -44 -14 -49 -13 -61 2 -11 15 -9 20 10 35 l23
18 -22 0 c-13 0 -23 -4 -23 -8 0 -9 -44 -32 -61 -32 -6 0 -15 14 -20 30 -6 17
-17 30 -25 30 -8 0 -14 5 -14 10 0 6 -12 10 -26 10 -14 0 -43 14 -64 31 -21
17 -43 28 -49 25 -6 -4 -18 3 -28 14 -10 12 -30 28 -45 36 -15 8 -43 38 -62
66 -19 29 -48 65 -63 79 -16 15 -37 52 -47 85 -11 32 -33 74 -48 92 -15 18
-28 37 -28 42 0 5 -5 21 -12 37 -6 15 -10 36 -9 46 1 9 -7 30 -19 47 -15 22
-18 34 -11 47 8 16 -6 71 -42 163 -13 32 -26 93 -22 100 5 8 -51 179 -61 189
-4 3 -3 -34 1 -83z m2605 -872 c0 -8 -5 -12 -10 -9 -6 4 -8 11 -5 16 9 14 15
11 15 -7z m-23 -76 c-3 -7 -5 -2 -5 12 0 14 2 19 5 13 2 -7 2 -19 0 -25z
m-322 -698 c-3 -5 -11 -10 -16 -10 -6 0 -7 5 -4 10 3 6 11 10 16 10 6 0 7 -4
4 -10z m-165 -239 c0 -5 -9 -12 -20 -15 -11 -3 -29 -9 -40 -12 -11 -3 -20 -1
-20 5 0 6 9 11 19 11 11 0 23 5 26 10 8 13 35 13 35 1z m-100 -75 c0 -3 -4 -8
-10 -11 -5 -3 -10 -1 -10 4 0 6 5 11 10 11 6 0 10 -2 10 -4z m-145 -93 c-15
-10 -20 -9 -35 10 -10 12 -15 28 -12 36 4 11 7 9 13 -7 8 -22 20 -28 32 -15 4
3 2 12 -4 19 -6 7 -7 19 -3 26 5 8 11 1 17 -22 7 -27 5 -36 -8 -47z m-58 -10
c6 -18 -46 -63 -64 -56 -8 3 -19 0 -24 -8 -7 -11 -9 -11 -9 2 0 9 14 31 32 48
32 32 58 37 65 14z m-324 -55 c6 -23 -6 -38 -32 -38 -7 0 -11 6 -8 15 4 8 2
17 -3 20 -18 11 -10 25 14 25 16 0 26 -7 29 -22z m-33 -79 c0 -12 -37 -12 -44
0 -7 11 14 20 32 13 6 -2 12 -8 12 -13z m-140 -29 c0 -5 -7 -10 -16 -10 -8 0
-12 5 -9 10 3 6 10 10 16 10 5 0 9 -4 9 -10z m360 -390 c0 -13 -7 -20 -20 -20
-19 0 -27 20 -13 33 13 14 33 6 33 -13z m57 -50 c9 0 13 -8 11 -22 -3 -20 -8
-23 -38 -20 -28 2 -32 0 -20 -8 12 -9 8 -10 -19 -6 -18 3 -40 6 -47 6 -8 0
-14 5 -14 10 0 6 6 10 13 10 8 0 22 9 31 19 19 21 58 32 64 19 2 -5 10 -8 19
-8z"/>
<path d="M12040 8530 c0 -11 7 -20 15 -20 13 0 14 4 5 20 -6 11 -13 20 -15 20
-3 0 -5 -9 -5 -20z"/>
<path d="M1122 8340 c0 -14 2 -19 5 -12 2 6 2 18 0 25 -3 6 -5 1 -5 -13z"/>
<path d="M4430 8327 c0 -14 58 -42 68 -32 9 8 -35 45 -54 45 -8 0 -14 -6 -14
-13z"/>
<path d="M6077 8300 l-27 -29 29 -16 c17 -8 47 -15 69 -15 37 0 38 1 39 35 1
40 1 40 -47 48 -30 5 -39 2 -63 -23z"/>
<path d="M12063 8225 c0 -22 2 -30 4 -17 2 12 2 30 0 40 -3 9 -5 -1 -4 -23z"/>
<path d="M1123 8205 c0 -27 2 -38 4 -22 2 15 2 37 0 50 -2 12 -4 0 -4 -28z"/>
<path d="M12061 8105 c0 -33 4 -78 8 -100 8 -39 8 -39 16 29 6 54 4 75 -8 100
l-16 31 0 -60z"/>
<path d="M1128 7955 c4 -232 10 -257 10 -45 0 91 -3 179 -7 195 -4 17 -5 -51
-3 -150z"/>
<path d="M2573 8050 c0 -30 2 -43 4 -27 2 15 2 39 0 55 -2 15 -4 2 -4 -28z"/>
<path d="M7438 8021 c-5 -18 -8 -50 -7 -70 l1 -36 9 33 c6 19 9 50 7 70 l-3
37 -7 -34z"/>
<path d="M2567 7908 c-3 -46 -2 -112 3 -148 5 -36 11 -83 13 -105 2 -22 4 39
5 135 2 188 -11 259 -21 118z"/>
<path d="M5490 7780 c0 -5 1 -12 3 -14 1 -2 -5 -12 -15 -22 -11 -13 -15 -31
-12 -54 4 -34 19 -59 29 -48 6 5 6 16 4 63 -1 11 2 35 6 53 5 21 4 32 -4 32
-6 0 -11 -4 -11 -10z"/>
<path d="M6365 7720 c-3 -5 -42 -10 -86 -10 -81 0 -91 -4 -63 -25 11 -8 14
-19 9 -34 -6 -20 -11 -22 -53 -17 -26 4 -54 2 -62 -3 -13 -9 -12 -12 5 -25 11
-8 32 -18 48 -21 15 -4 32 -15 37 -26 6 -10 20 -19 30 -19 11 0 20 -3 20 -8 0
-13 68 -29 84 -20 9 5 16 22 16 38 0 22 5 30 18 31 9 0 26 2 37 4 10 2 25 0
31 -6 7 -6 16 -4 24 6 7 8 9 15 5 15 -4 0 -2 6 4 14 9 10 8 16 -4 26 -8 7 -15
9 -15 4 -1 -5 -9 1 -20 14 -15 18 -17 29 -10 48 9 22 7 24 -20 24 -16 0 -32
-4 -35 -10z"/>
<path d="M2581 7534 c0 -11 3 -14 6 -6 3 7 2 16 -1 19 -3 4 -6 -2 -5 -13z"/>
<path d="M650 7510 c0 -6 -39 -10 -98 -10 -54 0 -201 -3 -325 -7 l-227 -6 0
-1862 0 -1862 83 -56 c46 -31 96 -61 113 -68 54 -24 116 -81 137 -128 18 -40
20 -64 18 -196 -2 -167 -9 -185 -66 -185 -24 0 -47 14 -100 59 -38 33 -95 78
-127 101 l-58 41 0 -108 c0 -102 1 -108 26 -134 61 -63 91 -135 128 -305 47
-220 48 -224 37 -363 -8 -103 -13 -127 -30 -145 -12 -12 -21 -29 -21 -36 0
-10 -3 -11 -11 -3 -19 19 -72 -10 -81 -43 -9 -34 -3 -64 25 -127 17 -36 26
-47 40 -43 23 6 39 -26 35 -72 -2 -31 -7 -38 -28 -40 -14 -2 -31 -8 -37 -14
-7 -6 -23 -8 -35 -5 -23 6 -57 -7 -47 -17 3 -4 31 -7 62 -7 35 -1 61 -7 68
-16 16 -19 4 -28 -35 -25 -20 2 -37 -3 -45 -12 -8 -9 -22 -16 -32 -16 -24 0
-24 -9 -1 -26 16 -13 16 -13 0 -14 -17 0 -18 -42 -18 -740 l0 -740 184 0 183
0 8 153 c5 83 8 166 8 182 -1 24 8 37 45 65 25 19 49 34 53 33 19 -6 66 -6 84
0 18 6 21 3 20 -25 0 -24 -6 -36 -24 -45 -21 -10 -27 -9 -37 4 -10 15 -16 12
-49 -20 l-38 -37 27 -10 c38 -14 50 -13 78 9 32 26 203 38 227 17 20 -17 65
-28 84 -20 21 8 9 44 -14 44 -19 0 -43 33 -32 44 3 3 24 6 45 6 l39 0 -5 -73
c-3 -39 -5 -82 -6 -94 0 -15 -6 -22 -17 -21 -42 3 -83 -3 -83 -12 0 -5 23 -10
50 -10 l50 0 -6 -95 -7 -95 4215 0 4216 0 21 117 c60 338 74 737 35 996 -5 29
-3 37 9 37 21 0 63 -52 77 -97 7 -21 20 -47 30 -58 62 -72 153 -252 199 -396
17 -53 50 -143 74 -200 34 -81 109 -299 133 -386 3 -10 201 -13 947 -13 l944
0 -8 58 c-5 31 -15 82 -24 112 -36 134 -88 370 -120 542 -7 42 -18 94 -24 115
-16 58 -14 123 4 172 8 23 18 82 20 130 5 99 13 151 26 168 6 6 7 22 4 36 -6
23 -4 26 26 29 56 5 45 26 -18 33 -32 4 -64 12 -71 18 -10 8 -19 4 -35 -12
l-22 -22 22 -18 22 -19 -36 -5 c-43 -7 -73 7 -73 34 0 20 -10 60 -65 254 -12
44 -30 121 -40 170 -9 50 -23 104 -30 120 -8 17 -23 68 -35 115 -12 47 -37
137 -56 200 -19 63 -42 140 -50 170 -9 30 -20 69 -25 85 -5 17 -24 89 -44 160
-20 72 -42 153 -50 180 -8 28 -30 109 -50 180 -58 211 -223 722 -250 776 -8
15 -30 71 -49 125 -42 123 -103 289 -121 329 -7 17 -28 66 -46 110 -46 113
-188 388 -239 465 -43 64 -156 203 -185 228 -8 7 -20 10 -26 7 -6 -4 -8 2 -4
17 8 32 -21 61 -108 104 -40 20 -83 44 -97 54 -31 22 -111 65 -310 167 -201
103 -341 163 -377 163 -9 0 -24 6 -32 13 -9 8 -41 21 -71 30 -50 15 -312 94
-610 183 -63 19 -142 44 -175 54 -134 42 -527 154 -630 179 l-110 27 -29 55
c-104 198 -142 254 -235 349 -155 158 -254 228 -237 168 4 -13 13 -75 21 -138
8 -63 24 -164 35 -225 11 -60 22 -153 25 -205 3 -52 7 -120 10 -150 5 -66 -9
-235 -24 -305 -7 -27 -12 -104 -13 -170 0 -67 -5 -123 -11 -126 -6 -5 -6 -17
1 -37 15 -43 -3 -94 -53 -151 -160 -180 -302 -415 -371 -614 -72 -208 -87
-253 -100 -307 -12 -46 -63 -141 -143 -270 -25 -41 -67 -133 -75 -165 -4 -16
-34 -87 -67 -157 -32 -70 -59 -132 -59 -138 0 -29 -38 2 -149 119 -67 71 -167
167 -223 213 -56 46 -129 109 -164 141 -34 32 -81 72 -105 89 -66 46 -115 95
-178 178 -62 81 -161 225 -161 235 0 3 -33 60 -72 127 -65 108 -85 132 -178
216 -58 52 -116 113 -130 137 -14 23 -31 50 -39 59 -31 37 -131 210 -131 226
0 10 -6 23 -14 29 -18 15 -36 83 -40 150 -2 30 -8 57 -14 59 -14 4 -16 34 -4
48 7 7 6 42 -8 189 -5 48 22 211 43 267 14 36 33 108 41 160 14 88 38 389 31
396 -8 8 -85 -41 -142 -90 -77 -66 -203 -231 -203 -267 0 -19 -91 -216 -114
-246 -168 -215 -155 -205 -321 -266 -43 -17 -93 -36 -110 -43 -16 -7 -70 -28
-120 -46 -49 -18 -100 -38 -112 -46 -12 -8 -27 -14 -33 -14 -9 0 -93 -34 -295
-120 -11 -4 -36 -14 -55 -20 -43 -16 -180 -77 -200 -90 -8 -5 -42 -23 -75 -39
-33 -16 -77 -43 -99 -60 -21 -17 -44 -31 -50 -31 -6 0 -23 -7 -38 -14 -16 -8
-58 -25 -95 -36 -138 -45 -230 -79 -308 -115 -88 -40 -83 -37 -146 -80 -45
-30 -70 -46 -128 -80 -18 -11 -67 -42 -108 -68 -41 -27 -77 -46 -80 -43 -8 7
33 43 57 51 10 3 21 12 24 20 3 8 12 15 20 15 8 0 43 22 78 49 35 26 74 51 86
55 12 4 34 18 50 30 15 13 57 38 94 56 l67 33 -4 96 c-2 53 -6 157 -8 231 -4
117 -8 140 -27 173 -21 35 -20 69 0 37 12 -19 11 450 -1 500 -4 19 -15 67 -24
105 -9 39 -26 93 -39 120 -27 59 -51 141 -48 170 2 22 -2 32 -41 116 -15 31
-27 61 -27 67 0 6 -11 23 -25 38 -14 15 -25 33 -25 41 0 29 -73 133 -97 139
-43 11 -50 -12 -13 -46 26 -24 31 -35 26 -56 -7 -27 16 -75 54 -109 11 -10 20
-26 20 -36 0 -10 9 -33 20 -51 11 -18 20 -40 20 -49 0 -9 8 -24 19 -33 20 -18
35 -71 25 -88 -3 -5 -17 0 -30 13 -21 20 -24 20 -30 5 -4 -11 0 -22 12 -31 11
-7 16 -17 12 -21 -4 -4 -14 -2 -21 4 -8 7 -17 9 -20 5 -11 -11 -8 -23 7 -23
16 0 63 -86 53 -97 -5 -4 -16 -2 -25 5 -9 6 -32 19 -49 28 -18 9 -33 20 -33
25 0 5 -9 9 -20 9 -11 0 -20 -5 -20 -11 0 -6 -14 -28 -32 -47 l-31 -37 6 38
c6 39 -5 49 -22 20 -16 -30 -25 -5 -12 37 12 40 8 65 -9 55 -11 -7 -40 -65
-40 -80 0 -16 -25 -26 -45 -19 -8 4 -18 17 -21 29 -6 24 -10 26 -76 27 -29 1
-38 6 -38 19 0 28 -17 32 -34 8 -14 -20 -16 -20 -37 -5 -31 21 -46 20 -52 -4
-3 -11 -14 -20 -24 -20 -11 0 -26 -11 -33 -25 -9 -17 -22 -25 -39 -25 -23 -1
-24 -2 -8 -11 18 -10 18 -12 -3 -34 -13 -14 -20 -31 -17 -39 7 -18 37 -22 37
-5 0 18 60 72 108 97 50 26 56 13 10 -19 -18 -13 -34 -27 -36 -31 -2 -4 -10
-8 -18 -8 -8 0 -14 -7 -14 -15 0 -20 15 -19 35 2 12 12 21 14 33 7 9 -6 38 -7
71 -3 56 8 95 -3 89 -23 -2 -6 -23 -18 -46 -27 -49 -19 -68 -36 -54 -45 6 -3
13 -2 17 4 10 15 45 12 51 -5 4 -10 14 -14 28 -10 18 5 19 5 5 -7 -26 -21 -32
-55 -13 -62 13 -5 15 -9 6 -18 -16 -16 -15 -28 2 -28 22 0 28 -17 16 -40 -13
-25 -31 -175 -24 -195 10 -26 23 -16 29 23 11 60 16 72 31 72 8 0 14 -10 14
-25 0 -27 18 -33 38 -13 10 10 15 10 22 -1 4 -8 23 -19 42 -25 22 -8 32 -17
31 -29 -2 -9 -4 -24 -5 -33 -2 -12 14 -23 57 -39 32 -12 61 -27 63 -33 6 -18
-18 -24 -53 -12 -64 21 -61 4 5 -27 36 -17 79 -42 95 -57 17 -14 33 -26 37
-26 9 0 38 -54 38 -71 0 -6 -7 -9 -15 -6 -8 4 -17 2 -20 -4 -4 -5 -20 2 -37
16 -42 35 -54 28 -50 -31 3 -46 2 -48 -13 -29 -8 11 -13 25 -11 32 3 7 1 13
-5 13 -6 0 -13 -9 -16 -21 -5 -17 -11 -20 -34 -15 -21 4 -31 1 -38 -12 -8 -15
-11 -13 -20 11 -6 16 -11 39 -11 52 0 13 -5 27 -10 30 -5 3 -10 23 -11 43 -1
36 -1 36 -10 10 -6 -15 -16 -25 -22 -22 -7 2 -13 -7 -14 -26 -1 -16 2 -30 8
-30 6 0 3 -8 -6 -17 -16 -16 -19 -15 -46 18 -31 37 -36 58 -16 78 10 11 8 12
-11 6 -15 -4 -24 -2 -28 10 -5 12 -10 13 -20 4 -10 -8 -11 -16 -3 -30 5 -11 7
-36 3 -55 -8 -41 -17 -31 -28 29 -5 28 -14 40 -32 47 -14 6 -31 25 -39 42
l-14 33 -1 -42 c0 -26 5 -45 14 -50 7 -4 17 -33 21 -63 l8 -55 -37 45 c-20 25
-41 55 -47 66 -6 12 -22 27 -35 33 -16 7 -24 19 -24 36 0 36 -51 158 -62 147
-5 -5 -4 -21 3 -38 6 -16 13 -40 15 -54 2 -14 7 -37 10 -52 6 -28 -12 -39 -30
-20 -4 4 -13 7 -19 7 -7 0 -18 12 -25 28 -15 31 -37 37 -27 8 3 -11 1 -22 -5
-26 -6 -4 -10 6 -10 25 0 33 -25 96 -43 107 -9 6 -6 -17 9 -69 4 -12 0 -15
-15 -11 -17 4 -19 1 -14 -36 6 -41 -3 -51 -24 -30 -16 16 -35 1 -28 -21 3 -10
1 -21 -5 -25 -5 -3 -10 2 -10 11 0 14 -3 15 -11 7 -19 -19 -47 49 -54 126 -3
36 -10 208 -15 381 -31 971 -40 1184 -53 1192 -6 5 -114 5 -239 2 -168 -5
-228 -4 -228 5 0 6 -4 11 -10 11 -5 0 -10 -4 -10 -10z m373 -65 c9 -54 -3 -95
-28 -95 -8 0 -15 8 -15 18 -1 15 -2 14 -12 -3 -12 -19 -12 -19 -19 5 -8 29
-10 122 -2 102 4 -10 9 -8 20 8 24 35 47 21 56 -35z m1137 -626 c0 -6 -4 -7
-10 -4 -5 3 -10 11 -10 16 0 6 5 7 10 4 6 -3 10 -11 10 -16z m83 -256 c3 -16
9 -37 12 -48 6 -18 5 -18 -5 -2 -6 9 -17 17 -25 17 -7 0 -21 8 -30 17 -16 16
-16 17 1 30 27 20 41 16 47 -14z m51 -116 c-8 -21 -44 -23 -44 -2 0 17 32 37
43 26 4 -4 5 -15 1 -24z m-210 -2 c-4 -8 -8 -15 -10 -15 -2 0 -4 7 -4 15 0 8
4 15 10 15 5 0 7 -7 4 -15z m60 -37 c5 -31 3 -48 -3 -48 -13 0 -25 64 -17 86
9 23 12 16 20 -38z m166 -29 c0 -5 7 -9 15 -9 10 0 14 -10 13 -35 -1 -19 -6
-35 -12 -34 -19 1 -67 66 -60 82 6 15 44 12 44 -4z m-240 -69 c0 -11 -4 -20
-10 -20 -5 0 -10 9 -10 20 0 11 5 20 10 20 6 0 10 -9 10 -20z m215 -8 c14 -10
19 -62 6 -62 -14 0 -52 51 -45 61 6 11 25 11 39 1z m-454 -35 c-13 -13 -26 -3
-16 12 3 6 11 8 17 5 6 -4 6 -10 -1 -17z m2524 -146 c3 -5 1 -12 -5 -16 -5 -3
-10 1 -10 9 0 18 6 21 15 7z m-2329 -138 c-10 -10 -19 5 -10 18 6 11 8 11 12
0 2 -7 1 -15 -2 -18z m2068 -62 c4 -5 -6 -24 -21 -43 -45 -54 -63 -62 -63 -26
0 17 -3 19 -12 10 -7 -7 -24 -12 -38 -12 -17 0 -29 -8 -35 -22 -6 -13 -20 -28
-33 -34 -12 -6 -41 -28 -64 -48 -29 -26 -43 -34 -49 -25 -4 8 -13 1 -25 -22
-17 -32 -19 -33 -22 -11 -2 16 -8 22 -18 18 -8 -3 -14 -2 -14 3 0 5 21 19 48
31 26 12 63 35 83 51 20 16 40 29 43 29 4 0 16 9 28 20 12 11 30 20 41 20 10
0 25 7 33 15 9 8 26 15 38 15 13 0 31 9 41 20 20 22 31 25 39 11z m101 -1 c9
-15 -33 -70 -49 -64 -8 3 -17 1 -21 -5 -7 -13 -45 -15 -45 -3 0 4 12 15 28 24
15 9 36 26 46 37 21 23 32 26 41 11z m-2020 -40 c10 -11 16 -23 12 -26 -8 -8
-44 13 -51 31 -8 22 18 19 39 -5z m-795 -26 c0 -8 -4 -12 -10 -9 -5 3 -10 13
-10 21 0 8 5 12 10 9 6 -3 10 -13 10 -21z m7 -61 c-3 -10 -5 -4 -5 12 0 17 2
24 5 18 2 -7 2 -21 0 -30z m-533 -1 c-1 -7 -2 -36 -3 -64 -2 -61 -16 -49 -27
22 -6 34 -4 41 6 35 10 -6 12 -4 7 9 -5 12 -3 16 5 14 7 -3 13 -10 12 -16z
m8250 -18 c5 -14 4 -15 -9 -4 -17 14 -19 20 -6 20 5 0 12 -7 15 -16z m-7579
-43 c0 -34 -33 -37 -46 -5 -13 35 -12 36 19 32 21 -2 27 -8 27 -27z m7778 -15
c4 -10 1 -13 -9 -9 -7 3 -14 9 -14 14 0 14 17 10 23 -5z m-7997 -42 c3 -13 3
-32 -1 -41 -8 -17 -8 -17 -12 0 -3 9 -10 17 -16 18 -7 1 -21 2 -32 3 -25 1
-35 46 -11 46 9 0 16 -6 16 -12 0 -8 5 -6 11 4 13 22 38 12 45 -18z m133 -26
c1 -10 -4 -18 -10 -18 -7 0 -18 8 -25 18 -12 15 -13 8 -14 -51 0 -52 6 -81 25
-123 27 -59 31 -79 15 -89 -5 -3 -10 -22 -10 -42 0 -29 -3 -33 -14 -24 -18 15
-28 81 -15 97 6 8 4 34 -8 80 -12 43 -17 93 -15 132 4 58 5 62 28 62 13 0 24
6 25 13 1 15 17 -32 18 -55z m2481 53 c0 -5 -7 -12 -16 -15 -14 -5 -15 -4 -4
9 14 17 20 19 20 6z m-1652 -21 c12 -11 25 -20 31 -20 5 0 14 -13 20 -30 6
-18 6 -30 0 -30 -5 0 -9 -6 -9 -14 0 -8 -5 -18 -12 -22 -8 -5 -9 2 -5 24 5 22
2 35 -9 44 -37 31 -54 49 -54 58 0 16 14 12 38 -10z m1831 8 c45 -1 61 -4 61
-15 0 -11 -20 -13 -104 -11 -100 3 -104 4 -88 21 11 12 24 16 43 12 15 -3 54
-6 88 -7z m-219 -8 c0 -5 -7 -10 -15 -10 -8 0 -15 5 -15 10 0 6 7 10 15 10 8
0 15 -4 15 -10z m-194 -26 c-3 -9 -6 -18 -6 -20 0 -2 -5 -4 -11 -4 -8 0 -9 4
0 13 6 8 8 17 4 20 -3 4 -1 7 6 7 8 0 11 -6 7 -16z m529 6 c3 -5 -1 -10 -9
-10 -9 0 -16 5 -16 10 0 6 4 10 9 10 6 0 13 -4 16 -10z m-2045 -26 c0 -14 -4
-23 -10 -19 -5 3 -10 15 -10 26 0 10 5 19 10 19 6 0 10 -12 10 -26z m-580 -54
c0 -38 -13 -60 -24 -41 -4 5 -9 30 -13 56 -6 46 -5 47 15 36 17 -9 22 -21 22
-51z m2180 50 c-20 -13 -33 -13 -25 0 3 6 14 10 23 10 15 0 15 -2 2 -10z m50
-61 c-35 -30 -50 -36 -50 -20 0 11 73 60 80 54 3 -3 -11 -18 -30 -34z m-2578
6 c6 -27 0 -38 -13 -29 -12 7 -12 54 0 54 5 0 11 -11 13 -25z m-383 -127 c1
-61 -3 -109 -9 -113 -5 -3 -10 -3 -11 2 -7 103 -8 168 -2 208 9 79 21 27 22
-97z m1261 135 c0 -5 -5 -15 -10 -23 -8 -12 -10 -11 -10 8 0 12 5 22 10 22 6
0 10 -3 10 -7z m-449 -20 c0 -16 1 -16 8 1 6 15 10 16 16 7 4 -8 2 -17 -6 -22
-21 -13 -27 -11 -39 11 -9 16 -8 20 5 20 8 0 15 -8 16 -17z m2004 7 c-3 -5
-12 -10 -18 -10 -7 0 -6 4 3 10 19 12 23 12 15 0z m-2345 -10 c0 -5 -4 -10
-10 -10 -5 0 -10 5 -10 10 0 6 5 10 10 10 6 0 10 -4 10 -10z m190 -29 c0 -16
5 -31 11 -33 6 -2 15 -21 19 -43 5 -22 12 -52 16 -67 7 -32 -11 -39 -21 -8 -3
10 -19 30 -34 42 -24 21 -28 31 -28 81 0 49 2 57 18 57 14 0 19 -7 19 -29z
m791 -8 c-10 -17 -10 -16 -11 3 0 23 13 41 18 25 2 -6 -1 -18 -7 -28z m7413
16 c14 -7 23 -16 20 -20 -3 -5 3 -9 12 -9 15 0 16 -2 5 -12 -10 -11 -16 -9
-29 7 -9 11 -28 25 -42 32 -18 8 -20 12 -8 12 9 1 28 -4 42 -10z m-8099 -48
c-4 -20 0 -42 13 -68 24 -47 37 -113 23 -113 -16 0 -91 142 -91 172 0 17 6 28
18 31 39 10 44 8 37 -22z m114 18 c37 -13 39 -24 9 -40 -36 -19 -38 -30 -12
-81 27 -54 31 -88 9 -88 -8 0 -15 8 -15 19 0 10 -6 24 -13 30 -8 6 -19 29 -26
51 -6 22 -16 40 -20 40 -14 0 -22 29 -15 56 7 27 31 31 83 13z m2001 7 c0 -2
-8 -10 -17 -17 -16 -13 -17 -12 -4 4 13 16 21 21 21 13z m594 -2 c25 -10 19
-22 -9 -16 -14 2 -22 8 -19 13 6 11 8 11 28 3z m-3029 -84 c4 -16 14 -34 22
-39 10 -5 14 -15 10 -25 -10 -24 -25 -19 -42 13 -11 22 -21 29 -40 27 -36 -4
-34 29 3 42 39 15 40 15 47 -18z m3055 -6 c0 -8 -5 -12 -10 -9 -6 4 -8 11 -5
16 9 14 15 11 15 -7z m-705 -14 c-3 -5 -11 -10 -16 -10 -6 0 -7 5 -4 10 3 6
11 10 16 10 6 0 7 -4 4 -10z m-785 -80 c-8 -5 -25 -10 -37 -10 -14 0 -29 -11
-40 -30 -9 -16 -20 -30 -23 -30 -3 0 -16 -9 -30 -20 l-25 -19 30 2 c26 2 30
-2 33 -24 3 -25 -3 -33 -43 -67 -8 -7 -15 -27 -15 -45 0 -68 -52 -98 -101 -58
l-24 20 22 20 c12 12 34 26 48 31 14 5 25 16 25 24 0 11 -9 13 -40 9 -48 -7
-55 15 -15 41 28 18 33 47 11 65 -14 12 -46 5 -46 -11 0 -5 -13 -14 -30 -19
-16 -6 -30 -17 -30 -25 0 -8 -10 -14 -22 -14 -13 0 -33 -3 -45 -6 -30 -8 -31
16 -2 35 53 32 88 49 139 66 30 10 67 24 83 32 15 7 45 15 67 18 21 2 47 8 57
14 24 14 74 15 53 1z m-2001 -146 c0 -75 -2 -135 -4 -132 -8 8 -25 236 -19
252 16 42 23 4 23 -120z m3455 106 c-11 -11 -193 -26 -182 -15 8 8 98 21 158
24 22 1 31 -2 24 -9z m-194 -10 c0 -5 -4 -10 -10 -10 -5 0 -10 5 -10 10 0 6 5
10 10 10 6 0 10 -4 10 -10z m-2453 -32 c-3 -8 -6 -5 -6 6 -1 11 2 17 5 13 3
-3 4 -12 1 -19z m713 -68 c0 -5 -18 -24 -40 -41 -22 -18 -40 -37 -40 -43 0 -6
4 -5 9 3 6 9 11 10 15 2 9 -14 -15 -51 -32 -51 -9 0 -12 -6 -8 -16 8 -22 -21
-67 -39 -60 -7 2 -21 -4 -30 -14 -10 -11 -26 -22 -36 -25 -11 -4 -19 -12 -19
-20 0 -7 -11 -22 -24 -33 -14 -10 -28 -31 -32 -45 -7 -31 -21 -35 -27 -9 -3
12 -6 8 -12 -13 -11 -41 -21 -52 -56 -59 -20 -4 -33 -13 -36 -26 -3 -13 -11
-19 -19 -16 -10 4 -14 -4 -14 -28 0 -18 -7 -39 -15 -46 -8 -7 -15 -9 -15 -5 0
4 -7 2 -15 -5 -9 -8 -15 -8 -15 -2 0 6 5 12 12 14 19 7 0 38 -23 38 -16 0 -19
4 -14 18 4 9 10 25 12 35 3 9 13 17 23 17 25 0 51 44 48 82 -2 19 3 33 11 36
7 2 22 13 32 23 11 11 21 19 24 19 13 0 48 44 37 48 -6 2 -8 10 -5 18 3 7 9
11 14 8 10 -6 110 60 179 117 44 37 127 89 143 89 4 0 7 -4 7 -10z m2040 -75
c6 -31 9 -61 7 -68 -6 -17 -24 30 -32 88 -11 67 10 51 25 -20z m-2740 8 c0
-19 -3 -24 -10 -17 -6 6 -8 18 -4 27 9 24 14 21 14 -10z m-835 -132 c13 -5 -7
-10 -59 -14 -80 -6 -110 -2 -100 14 6 11 131 11 159 0z m1765 -25 c0 -3 -4 -8
-10 -11 -5 -3 -10 -1 -10 4 0 6 5 11 10 11 6 0 10 -2 10 -4z m-710 -38 c0 -12
-19 -38 -46 -63 -45 -42 -58 -71 -71 -155 -8 -49 -43 -66 -43 -21 0 9 -6 26
-14 36 -12 16 -16 17 -30 6 -9 -7 -16 -21 -16 -31 0 -9 -11 -23 -25 -30 -14
-7 -25 -19 -25 -25 0 -7 -11 -24 -25 -39 -13 -14 -22 -26 -20 -26 2 0 -10 -13
-26 -29 -16 -16 -29 -38 -29 -49 0 -11 -12 -34 -26 -51 -18 -22 -24 -38 -20
-54 6 -25 -26 -53 -46 -41 -7 5 -9 0 -6 -14 4 -15 0 -23 -13 -27 -10 -3 -21
-15 -24 -26 -4 -11 -18 -27 -31 -36 -20 -12 -24 -22 -19 -40 3 -15 2 -22 -4
-19 -5 3 -14 -13 -19 -36 -11 -47 -30 -103 -43 -130 -5 -10 -9 -26 -9 -37 0
-11 -5 -21 -10 -23 -13 -4 -52 -166 -44 -180 4 -5 -3 -22 -14 -37 -11 -15 -22
-47 -25 -72 -3 -24 -10 -69 -16 -99 -6 -30 -15 -83 -20 -117 -5 -34 -13 -68
-18 -75 -4 -7 -8 -24 -9 -38 -1 -23 -8 -81 -35 -287 -7 -50 -17 -87 -26 -95
-14 -11 -15 -6 -9 42 4 30 12 96 17 145 6 50 18 128 26 175 8 47 19 114 24
150 17 118 126 562 159 650 26 68 54 142 74 195 8 22 30 69 50 103 20 35 36
66 36 68 0 14 83 128 132 183 32 35 58 70 58 77 0 13 71 74 87 74 5 0 22 14
39 31 30 33 120 89 142 89 6 0 12 -10 12 -22z m-1030 -90 c0 -18 -2 -20 -9 -8
-6 8 -7 18 -5 22 9 14 14 9 14 -14z m1037 -13 c-4 -8 -11 -15 -17 -15 -7 0 -7
6 0 21 13 23 26 19 17 -6z m-1046 -122 c-9 -15 -10 -12 -11 18 0 20 3 39 8 43
11 12 14 -42 3 -61z m939 -65 c0 -7 -5 -20 -10 -28 -8 -12 -10 -9 -10 13 0 15
5 27 10 27 6 0 10 -6 10 -12z m-928 -145 c3 -28 1 -58 -3 -65 -6 -8 -9 2 -9
27 0 22 -3 58 -6 80 -4 27 -2 35 4 25 5 -8 12 -38 14 -67z m758 39 c0 -5 -6
-17 -14 -28 -11 -14 -17 -16 -26 -7 -10 9 -9 15 1 27 15 16 39 21 39 8z m-753
-404 c-3 -8 -6 -5 -6 6 -1 11 2 17 5 13 3 -3 4 -12 1 -19z m5508 -662 c27 -22
28 -26 17 -52 -11 -23 -11 -29 2 -36 9 -5 16 -17 16 -27 0 -23 -44 -71 -65
-71 -44 0 -107 78 -109 135 0 24 4 31 22 33 12 2 22 9 22 17 0 31 56 32 95 1z
m-5745 -251 c0 -18 17 -20 22 -4 3 8 17 10 43 5 31 -6 52 -21 92 -64 29 -31
50 -58 48 -61 -3 -2 -13 3 -23 12 -10 10 -27 17 -38 17 -22 -1 -78 -51 -142
-128 -24 -29 -48 -52 -54 -52 -13 0 -88 74 -88 87 0 6 15 26 33 45 111 120
111 120 86 116 -27 -3 -34 23 -9 34 24 11 30 9 30 -7z m-113 -117 c-3 -7 -5
-2 -5 12 0 14 2 19 5 13 2 -7 2 -19 0 -25z m-360 -72 l37 -34 -29 -25 c-42
-36 -46 -32 -82 76 -9 30 34 20 74 -17z m816 -105 c52 -20 57 -106 33 -506 -4
-60 -9 -153 -11 -205 -2 -52 -6 -122 -10 -155 -3 -33 -5 -71 -4 -85 2 -26 1
-44 -6 -125 -2 -27 -4 -54 -4 -59 -1 -5 -4 -6 -8 -2 -4 4 -6 27 -4 51 2 34 -1
45 -12 45 -31 0 -213 -53 -228 -66 -20 -18 -99 -19 -100 -1 -1 6 -1 14 -1 17
11 123 15 246 16 577 1 368 2 404 18 420 16 15 22 16 54 4 35 -13 37 -12 68
20 18 18 59 43 92 55 68 26 74 27 107 15z m7041 -729 c54 -16 62 -22 83 -62
27 -51 24 -66 -14 -81 -33 -12 -149 7 -175 29 -20 16 -24 57 -8 67 6 3 10 15
10 25 0 16 23 39 40 40 3 0 32 -8 64 -18z m3501 -688 c14 -22 15 -28 4 -35
-16 -10 -29 7 -29 39 0 28 4 28 25 -4z m-5155 -80 c58 -23 84 -63 75 -116 -15
-84 -75 -114 -153 -74 -58 29 -72 49 -72 100 0 52 9 67 54 87 50 23 47 23 96
3z m5184 -56 c3 -7 7 -34 10 -60 4 -37 2 -48 -8 -48 -14 0 -26 42 -26 91 0 29
17 40 24 17z m-10619 -75 c-5 -133 -17 -243 -26 -237 -5 3 -9 33 -9 67 0 68
-15 109 -26 70 -3 -12 -14 -25 -24 -28 -10 -3 -21 -12 -24 -21 -4 -10 -15 -13
-37 -9 -72 13 -66 29 35 110 47 37 89 79 96 96 7 16 14 29 16 29 1 0 1 -35 -1
-77z m-15 -329 c0 -21 -4 -33 -10 -29 -5 3 -10 19 -10 36 0 16 5 29 10 29 6 0
10 -16 10 -36z m-43 -115 c16 -14 17 -52 2 -94 -10 -27 -15 -31 -42 -27 -32 5
-76 47 -77 73 0 9 10 29 21 44 18 22 27 26 52 21 17 -3 36 -11 44 -17z m-202
-159 c8 -13 -5 -13 -25 0 -13 8 -13 10 2 10 9 0 20 -4 23 -10z"/>
<path d="M6297 3434 c-4 -4 -7 -27 -7 -51 0 -38 3 -45 27 -54 15 -5 37 -8 50
-4 21 5 22 9 16 53 -3 26 -6 48 -7 49 -4 6 -73 13 -79 7z"/>
<path d="M741 2004 c0 -11 3 -14 6 -6 3 7 2 16 -1 19 -3 4 -6 -2 -5 -13z"/>
<path d="M6290 1361 c-24 -46 3 -101 49 -101 23 0 32 7 45 34 29 61 16 86 -46
86 -27 0 -40 -5 -48 -19z"/>
<path d="M12081 7344 c0 -11 3 -14 6 -6 3 7 2 16 -1 19 -3 4 -6 -2 -5 -13z"/>
<path d="M12090 7295 c0 -8 4 -15 10 -15 5 0 7 7 4 15 -4 8 -8 15 -10 15 -2 0
-4 -7 -4 -15z"/>
<path d="M12080 7215 c0 -5 5 -17 10 -25 5 -8 10 -10 10 -5 0 6 -5 17 -10 25
-5 8 -10 11 -10 5z"/>
<path d="M12093 7085 c0 -33 2 -45 4 -27 2 18 2 45 0 60 -2 15 -4 0 -4 -33z"/>
<path d="M2177 7001 c-8 -33 14 -135 39 -178 13 -23 24 -48 24 -55 0 -7 9 -19
20 -26 17 -10 20 -10 20 3 0 8 -6 15 -14 15 -9 0 -17 16 -21 41 -4 22 -13 43
-19 45 -8 3 -13 24 -14 48 0 24 -5 54 -12 65 -6 12 -8 31 -5 41 4 11 2 20 -3
20 -5 0 -12 -8 -15 -19z"/>
<path d="M12093 6965 c0 -22 2 -30 4 -17 2 12 2 30 0 40 -3 9 -5 -1 -4 -23z"/>
<path d="M2660 6965 c-7 -9 -10 -18 -7 -22 8 -7 37 15 37 28 0 14 -16 11 -30
-6z"/>
<path d="M2265 6930 c-4 -16 -11 -32 -16 -35 -15 -10 -10 -25 5 -19 20 7 49
-62 41 -95 -5 -18 -3 -22 9 -18 20 8 20 -3 1 -39 -13 -26 -13 -30 1 -41 9 -7
22 -14 28 -16 8 -3 7 -10 -2 -23 -40 -60 -34 -106 8 -64 23 23 23 25 11 129
-6 58 -11 131 -11 162 0 41 -5 60 -18 72 -28 26 -50 21 -57 -13z"/>
<path d="M2656 6912 c-7 -11 -1 -90 7 -98 4 -4 7 8 8 27 0 19 2 44 3 57 3 21
-8 30 -18 14z"/>
<path d="M12096 6733 c2 -92 6 -251 10 -353 3 -102 7 -288 8 -415 3 -254 22
-725 35 -880 6 -68 8 7 4 230 -2 182 -6 355 -8 385 -6 74 -13 361 -21 790 -7
407 -7 403 -21 407 -8 3 -10 -48 -7 -164z"/>
<path d="M1480 6788 c0 -9 5 -20 10 -23 13 -8 13 5 0 25 -8 13 -10 13 -10 -2z"/>
<path d="M2660 6791 c0 -17 18 -21 24 -6 3 9 0 15 -9 15 -8 0 -15 -4 -15 -9z"/>
<path d="M1804 6677 c-12 -12 -24 -33 -29 -45 -6 -21 -4 -23 15 -17 17 5 21 3
18 -11 -2 -11 4 -20 14 -22 21 -4 35 52 18 73 -7 9 -8 15 0 20 5 3 10 10 10
16 0 16 -24 9 -46 -14z"/>
<path d="M2411 6680 c-10 -6 -15 -27 -15 -67 -1 -122 15 -756 23 -923 4 -96 7
-213 6 -260 -3 -99 6 -130 37 -130 18 0 149 58 278 123 27 14 27 16 16 132 -4
33 -8 98 -10 145 -3 47 -9 97 -15 112 -7 19 -7 37 1 59 10 30 6 321 -9 554 -2
39 -4 85 -4 103 1 24 -3 32 -17 32 -14 0 -17 8 -14 54 3 42 0 55 -13 59 -23 9
-31 -19 -16 -58 9 -25 9 -50 1 -100 -6 -37 -8 -86 -5 -109 2 -22 7 -138 10
-256 3 -118 10 -282 14 -365 9 -146 5 -183 -19 -159 -19 19 -32 118 -40 314
-5 107 -11 235 -15 284 -4 59 -3 91 4 95 6 4 0 18 -16 36 -22 23 -27 38 -28
85 -1 40 -6 63 -18 75 -25 24 -40 55 -47 95 -4 29 -10 36 -34 40 -16 3 -32 13
-35 22 -4 12 -10 15 -20 8z"/>
<path d="M1652 6660 c0 -14 2 -19 5 -12 2 6 2 18 0 25 -3 6 -5 1 -5 -13z"/>
<path d="M1710 6668 c0 -18 18 -34 28 -24 3 4 -2 14 -11 23 -16 16 -17 16 -17
1z"/>
<path d="M2825 6637 c-8 -29 -11 -164 -6 -249 4 -64 5 -67 30 -70 15 -2 26 -9
26 -18 0 -8 8 -16 18 -18 13 -3 22 6 30 28 7 17 21 33 33 36 30 8 31 17 26
178 -4 130 -5 136 -19 108 -10 -21 -23 -31 -44 -34 -18 -3 -29 0 -29 7 0 12
-41 55 -53 55 -4 0 -9 -10 -12 -23z"/>
<path d="M1868 6585 c-6 -28 6 -34 16 -9 8 22 7 34 -3 34 -5 0 -11 -11 -13
-25z"/>
<path d="M2090 6571 c0 -25 6 -27 13 -6 4 8 2 17 -3 20 -6 4 -10 -3 -10 -14z"/>
<path d="M6756 6575 c-3 -8 -1 -15 4 -15 6 0 10 7 10 15 0 8 -2 15 -4 15 -2 0
-6 -7 -10 -15z"/>
<path d="M6705 6520 c-3 -5 -1 -10 4 -10 6 0 11 5 11 10 0 6 -2 10 -4 10 -3 0
-8 -4 -11 -10z"/>
<path d="M6640 6469 c0 -5 5 -7 10 -4 6 3 10 8 10 11 0 2 -4 4 -10 4 -5 0 -10
-5 -10 -11z"/>
<path d="M1665 6320 c-3 -5 -1 -10 4 -10 6 0 11 5 11 10 0 6 -2 10 -4 10 -3 0
-8 -4 -11 -10z"/>
<path d="M2865 6240 c-3 -5 -2 -10 4 -10 5 0 13 5 16 10 3 6 2 10 -4 10 -5 0
-13 -4 -16 -10z"/>
<path d="M2826 6194 c2 -50 10 -66 24 -44 14 22 12 60 -4 76 -21 20 -22 19
-20 -32z"/>
<path d="M2885 6140 c3 -5 8 -10 11 -10 2 0 4 5 4 10 0 6 -5 10 -11 10 -5 0
-7 -4 -4 -10z"/>
<path d="M1907 5978 c-6 -21 -2 -36 7 -27 10 11 16 49 8 49 -5 0 -12 -10 -15
-22z"/>
<path d="M2947 5964 c-3 -4 -3 -14 2 -23 10 -21 14 -95 6 -121 -12 -38 -32
-22 -38 33 -6 48 -29 83 -47 72 -7 -4 -24 -291 -21 -349 1 -16 7 -36 13 -43 7
-8 7 -13 0 -13 -5 0 -8 -9 -5 -21 13 -49 158 20 165 79 4 36 -10 143 -22 164
-5 9 -6 64 -3 125 6 102 5 107 -11 94 -13 -11 -19 -12 -25 -3 -4 7 -10 9 -14
6z"/>
<path d="M6392 5931 c-10 -6 -9 -10 7 -14 14 -3 21 0 21 9 0 16 -9 18 -28 5z"/>
<path d="M1270 5903 c0 -12 5 -25 10 -28 13 -8 13 15 0 35 -8 12 -10 11 -10
-7z"/>
<path d="M6703 5753 c-9 -25 -18 -33 -36 -33 -16 0 -26 -7 -30 -20 -4 -16 0
-20 19 -20 34 0 30 -24 -8 -51 -17 -13 -26 -25 -20 -27 19 -6 14 -30 -8 -42
-16 -9 -20 -20 -19 -53 1 -23 -2 -52 -6 -64 -10 -31 9 -30 41 2 14 14 29 25
34 25 16 0 70 59 60 65 -25 15 -6 21 28 10 37 -13 37 -13 57 21 11 18 28 34
37 34 37 0 70 25 90 69 11 25 28 51 36 57 14 10 13 13 -4 22 -10 5 -30 12 -44
13 -21 3 -26 -1 -28 -23 -4 -36 -42 -65 -57 -44 -8 10 -21 12 -50 7 -63 -11
-74 -5 -77 42 l-3 42 -12 -32z"/>
<path d="M7097 5620 c-3 -12 0 -20 8 -20 8 0 11 8 8 20 -3 11 -7 20 -8 20 -1
0 -5 -9 -8 -20z"/>
<path d="M2835 5480 c-3 -5 -1 -10 4 -10 6 0 11 5 11 10 0 6 -2 10 -4 10 -3 0
-8 -4 -11 -10z"/>
<path d="M11336 5044 c-4 -10 -1 -14 6 -12 15 5 23 28 10 28 -5 0 -13 -7 -16
-16z"/>
<path d="M11391 5043 c0 -7 -8 -13 -16 -13 -8 0 -15 -6 -15 -13 0 -7 -9 -23
-20 -35 -20 -21 -27 -62 -13 -76 9 -8 113 94 113 111 0 19 -27 4 -33 -18 -3
-10 -12 -19 -21 -19 -21 0 -21 16 0 28 9 5 14 17 11 28 -2 10 -5 13 -6 7z"/>
<path d="M11316 5005 c-3 -8 -1 -15 4 -15 6 0 10 7 10 15 0 8 -2 15 -4 15 -2
0 -6 -7 -10 -15z"/>
<path d="M11404 4932 c-22 -20 -49 -47 -59 -59 -18 -23 -18 -23 3 -23 12 0 22
6 22 13 0 8 18 30 40 51 22 20 40 41 40 46 0 14 -1 14 -46 -28z"/>
<path d="M11110 4952 c0 -5 9 -17 19 -26 11 -10 25 -30 31 -46 7 -18 17 -27
26 -23 20 8 18 15 -22 61 -34 40 -54 52 -54 34z"/>
<path d="M11466 4914 c-5 -14 -4 -15 9 -4 17 14 19 20 6 20 -5 0 -12 -7 -15
-16z"/>
<path d="M12150 4862 c0 -38 4 -62 11 -62 7 0 8 19 3 58 -9 77 -14 78 -14 4z"/>
<path d="M11410 4880 c0 -5 -17 -25 -37 -45 -21 -19 -32 -35 -25 -35 15 0 16
-32 0 -48 -26 -26 -1 -18 30 9 18 16 28 29 22 29 -19 0 -10 41 15 66 29 29 31
34 10 34 -8 0 -15 -4 -15 -10z"/>
<path d="M11520 4818 c-45 -35 -100 -77 -123 -93 -73 -55 -51 -58 27 -5 72 50
198 159 185 160 -4 0 -44 -28 -89 -62z"/>
<path d="M11035 4820 c3 -5 8 -10 11 -10 2 0 4 5 4 10 0 6 -5 10 -11 10 -5 0
-7 -4 -4 -10z"/>
<path d="M11580 4782 c-19 -16 -56 -40 -81 -55 -26 -15 -66 -45 -90 -67 -34
-32 -37 -37 -14 -23 17 10 41 28 55 41 14 13 40 30 57 39 31 14 124 92 113 93
-3 0 -21 -13 -40 -28z"/>
<path d="M11600 4730 c-14 -11 -20 -20 -14 -20 6 0 19 9 29 20 23 25 17 25
-15 0z"/>
<path d="M12161 4734 c0 -11 3 -14 6 -6 3 7 2 16 -1 19 -3 4 -6 -2 -5 -13z"/>
<path d="M11640 4685 c-14 -8 -20 -14 -15 -14 6 0 21 6 35 14 14 8 21 14 15
14 -5 0 -21 -6 -35 -14z"/>
<path d="M11467 4645 c-37 -32 -21 -32 18 0 17 13 26 24 20 24 -5 0 -23 -11
-38 -24z"/>
<path d="M11584 4660 c-12 -5 -25 -13 -28 -18 -3 -6 -25 -20 -48 -32 -47 -24
-78 -49 -78 -62 0 -6 83 44 179 109 12 8 -7 10 -25 3z"/>
<path d="M11496 4411 c-3 -5 -23 -17 -43 -27 -27 -13 -33 -19 -20 -22 26 -5
21 -22 -20 -66 l-38 -40 40 31 c22 17 49 40 60 50 11 11 33 28 48 37 15 10 27
25 27 32 0 15 -45 20 -54 5z"/>
<path d="M11375 4330 c-10 -11 -14 -20 -8 -20 5 0 18 9 28 20 10 11 14 20 8
20 -5 0 -18 -9 -28 -20z"/>
<path d="M11433 4250 c-23 -22 -39 -40 -35 -40 4 0 27 18 51 40 23 22 39 40
34 40 -4 0 -27 -18 -50 -40z"/>
<path d="M11505 4227 c-96 -67 -156 -128 -108 -110 25 10 53 36 53 49 0 6 10
16 23 22 28 15 111 82 100 81 -4 0 -35 -19 -68 -42z"/>
<path d="M12173 4115 c0 -27 2 -38 4 -22 2 15 2 37 0 50 -2 12 -4 0 -4 -28z"/>
<path d="M11434 4110 c-10 -11 -31 -32 -46 -47 -33 -32 -37 -50 -6 -29 30 21
38 20 38 -4 0 -11 -13 -34 -30 -52 -35 -36 -37 -43 -10 -28 11 6 25 8 31 4 13
-8 3 -53 -18 -76 -15 -17 -15 -18 3 -18 38 0 43 13 46 120 1 68 7 113 16 128
18 28 2 29 -24 2z"/>
<path d="M11470 3860 c-8 -5 -25 -10 -37 -10 -16 0 -23 -6 -23 -19 0 -10 -6
-24 -14 -31 -15 -12 -18 -90 -4 -90 4 0 8 7 8 15 0 8 4 15 9 15 5 0 18 19 30
43 11 23 30 47 43 52 12 6 23 16 26 23 4 14 -17 16 -38 2z"/>
<path d="M11884 3580 c-41 -41 -49 -53 -36 -58 7 -2 12 -10 12 -17 0 -16 -54
-75 -69 -75 -5 0 -12 -8 -14 -17 -4 -14 -5 -14 -6 3 -1 14 -7 21 -18 20 -10 0
-19 6 -19 14 -3 28 -16 60 -25 60 -5 0 -10 -3 -10 -7 -6 -35 -5 -64 7 -124 7
-38 11 -77 8 -87 -3 -9 7 4 23 30 38 63 141 168 186 192 21 11 35 22 32 24 -3
3 -11 0 -17 -6 -18 -18 -35 -14 -41 10 -4 14 -1 26 8 31 16 9 20 27 7 27 -5 0
-17 -9 -28 -20z"/>
<path d="M12200 3255 c0 -32 2 -56 4 -54 8 8 10 98 3 105 -4 4 -7 -19 -7 -51z"/>
<path d="M12213 3105 c0 -22 2 -30 4 -17 2 12 2 30 0 40 -3 9 -5 -1 -4 -23z"/>
<path d="M12211 2944 c0 -11 3 -14 6 -6 3 7 2 16 -1 19 -3 4 -6 -2 -5 -13z"/>
<path d="M11351 2884 c0 -11 3 -14 6 -6 3 7 2 16 -1 19 -3 4 -6 -2 -5 -13z"/>
<path d="M11330 2668 c0 -36 4 -35 14 5 4 16 2 27 -4 27 -5 0 -10 -14 -10 -32z"/>
<path d="M12261 1324 c0 -11 3 -14 6 -6 3 7 2 16 -1 19 -3 4 -6 -2 -5 -13z"/>
<path d="M12265 1200 c-3 -5 -1 -18 4 -27 9 -16 10 -14 11 10 0 28 -5 34 -15
17z"/>
<path d="M12262 1103 c-22 -9 -2 -23 34 -23 38 0 46 15 12 24 -26 6 -28 6 -46
-1z"/>
<path d="M620 490 c0 -5 -14 -10 -32 -10 -19 0 -28 -4 -22 -9 13 -12 99 2 102
17 1 7 -8 12 -23 12 -14 0 -25 -4 -25 -10z"/>
<path d="M475 481 c-14 -13 -1 -21 35 -21 22 0 40 4 40 9 0 9 -67 20 -75 12z"/>
<path d="M12758 303 c7 -3 16 -2 19 1 4 3 -2 6 -13 5 -11 0 -14 -3 -6 -6z"/>
</g>
</svg>
